<?xml version="1.0" encoding="UTF-8"?>
<svg version="1.1" xmlns="http://www.w3.org/2000/svg" width="1000" height="1000">
<path d="M0 0 C330 0 660 0 1000 0 C1000 330 1000 660 1000 1000 C670 1000 340 1000 0 1000 C0 670 0 340 0 0 Z " fill="#000000" transform="translate(0,0)"/>
<path d="M0 0 C1.37330811 -0.00736072 2.74661007 -0.01595268 4.11990356 -0.02566528 C7.81695617 -0.04769677 11.51378465 -0.05082072 15.21089387 -0.04891777 C18.32097854 -0.04879704 21.43101748 -0.0574038 24.54108924 -0.06569529 C31.89868108 -0.08486917 39.25615956 -0.08783765 46.61376953 -0.08105469 C54.14025342 -0.07444169 61.66624378 -0.0971809 69.19262773 -0.13436842 C75.70445609 -0.16534572 82.21612817 -0.17639483 88.72802848 -0.1725316 C92.59473956 -0.17049009 96.46106765 -0.17552832 100.32770729 -0.20042419 C130.39245869 -0.37871069 156.16388128 4.6301931 183.00073242 18.41992188 C184.42289063 19.14900757 184.42289063 19.14900757 185.8737793 19.89282227 C192.06509008 23.17853293 197.49247023 26.94111937 202.87573242 31.41992188 C203.79225586 32.17136475 203.79225586 32.17136475 204.72729492 32.93798828 C216.64782395 42.80590936 227.22480434 53.25344895 236.52758789 65.63623047 C237.81294591 67.33685084 239.12495086 69.01344694 240.44213867 70.68945312 C249.30478479 82.2300211 255.85893401 95.6140221 260.24145508 109.47583008 C260.88269355 111.5425593 260.88269355 111.5425593 261.96557617 113.94335938 C263.29413368 117.55840428 263.82653898 121.25177527 264.43823242 125.04492188 C265.35395696 130.80131778 265.35395696 130.80131778 266.87573242 136.41992188 C266.87573242 144.00992188 266.87573242 151.59992188 266.87573242 159.41992188 C128.93573242 159.41992188 -9.00426758 159.41992188 -151.12426758 159.41992188 C-151.12426758 136.08277902 -151.12426758 136.08277902 -149.12426758 127.41992188 C-148.86774414 126.2159375 -148.6112207 125.01195312 -148.34692383 123.77148438 C-145.1529356 109.45206787 -139.75835756 96.16497196 -132.99926758 83.16992188 C-132.38801025 81.99079224 -132.38801025 81.99079224 -131.7644043 80.7878418 C-129.28663238 76.16463325 -126.54310935 72.3880202 -123.12426758 68.41992188 C-122.63442383 67.59105469 -122.14458008 66.7621875 -121.63989258 65.90820312 C-119.74096799 62.79063878 -117.37032042 60.24521851 -114.87426758 57.60742188 C-113.87853763 56.54319482 -112.88374451 55.47809047 -111.88989258 54.41210938 C-111.41100586 53.89874023 -110.93211914 53.38537109 -110.4387207 52.85644531 C-108.77037477 51.03316384 -107.19942016 49.13636844 -105.62426758 47.23242188 C-102.13790889 43.21480853 -98.13909321 39.97864206 -93.96801758 36.69335938 C-92.19330729 35.27456626 -90.45542693 33.80681795 -88.78051758 32.27148438 C-72.50237483 17.63172613 -49.43749719 8.63039513 -28.30330181 3.94081879 C-26.72228323 3.56287718 -25.15227046 3.13791835 -23.59108448 2.68497467 C-15.63288962 0.44951771 -8.23708839 -0.01919076 0 0 Z " fill="#FEFEFE" transform="translate(442.124267578125,557.580078125)"/>
<path d="M0 0 C1.16402344 -0.01224609 2.32804687 -0.02449219 3.52734375 -0.03710938 C31.74663227 -0.0845102 57.68332337 11.63012988 77.75 31.1875 C80.20169221 33.7650491 82.49006063 36.44144095 84.75 39.1875 C85.38550781 39.92355469 86.02101563 40.65960938 86.67578125 41.41796875 C105.6712353 64.02809173 112.36611921 92.17980925 110.75 121.1875 C108.7800291 143.43806873 97.48676884 164.10803608 83.75 181.1875 C82.83154297 182.35539062 82.83154297 182.35539062 81.89453125 183.546875 C69.4876327 198.46689799 51.9597008 208.55421845 33.71630859 214.53808594 C31.88967431 215.14136967 30.07869359 215.79149625 28.26953125 216.4453125 C2.69521942 224.42159732 -26.4419724 219.55340894 -49.78955078 207.37646484 C-75.25588353 193.25233663 -95.64528312 171.02435232 -104.2578125 142.9296875 C-105.90237054 136.72698433 -107.17287047 130.51469445 -108.25 124.1875 C-108.476875 122.888125 -108.70375 121.58875 -108.9375 120.25 C-111.01246873 99.72105408 -108.24258187 72.96308863 -95.25 56.1875 C-94.79625 55.25292969 -94.3425 54.31835938 -93.875 53.35546875 C-92.026023 49.75085252 -89.76052422 46.65664432 -87.25 43.5 C-86.76942139 42.89349609 -86.28884277 42.28699219 -85.79370117 41.66210938 C-78.94534995 33.16823761 -71.38184973 25.23755319 -62.25 19.1875 C-61.30769531 18.55199219 -60.36539063 17.91648437 -59.39453125 17.26171875 C-41.33141131 5.57899441 -21.47555292 0.01173527 0 0 Z " fill="#FEFEFE" transform="translate(499.25,292.8125)"/>
</svg>
